<?xml version="1.0" encoding="UTF-8"?>
<svg version="1.1" xmlns="http://www.w3.org/2000/svg" width="474" height="361">
<path d="M0 0 C156.42 0 312.84 0 474 0 C474 119.13 474 238.26 474 361 C317.58 361 161.16 361 0 361 C0 241.87 0 122.74 0 0 Z " fill="#FFD93D" transform="translate(0,0)"/>
<path d="M0 0 C49.5 0 99 0 150 0 C150 4.95 150 9.9 150 15 C154.95 15 159.9 15 165 15 C165 64.5 165 114 165 165 C115.5 165 66 165 15 165 C15 160.05 15 155.1 15 150 C10.05 150 5.1 150 0 150 C0 100.5 0 51 0 0 Z " fill="#FD6A9C" transform="translate(248,66)"/>
<path d="M0 0 C49.5 0 99 0 150 0 C150 4.95 150 9.9 150 15 C154.95 15 159.9 15 165 15 C165 64.5 165 114 165 165 C115.5 165 66 165 15 165 C15 160.05 15 155.1 15 150 C10.05 150 5.1 150 0 150 C0 100.5 0 51 0 0 Z " fill="#65D8EE" transform="translate(68,66)"/>
<path d="M0 0 C123.75 0 247.5 0 375 0 C375 2.31 375 4.62 375 7 C377.64 7 380.28 7 383 7 C383 15.58 383 24.16 383 33 C258.92 33 134.84 33 7 33 C7 30.36 7 27.72 7 25 C4.69 25 2.38 25 0 25 C0 16.75 0 8.5 0 0 Z " fill="#070601" transform="translate(45,276)"/>
<path d="M0 0 C49.5 0 99 0 150 0 C150 4.95 150 9.9 150 15 C154.95 15 159.9 15 165 15 C165 64.5 165 114 165 165 C115.5 165 66 165 15 165 C15 160.05 15 155.1 15 150 C10.05 150 5.1 150 0 150 C0 100.5 0 51 0 0 Z M7 7 C7 51.88 7 96.76 7 143 C51.88 143 96.76 143 143 143 C143 98.12 143 53.24 143 7 C98.12 7 53.24 7 7 7 Z " fill="#000000" transform="translate(248,66)"/>
<path d="M0 0 C49.5 0 99 0 150 0 C150 4.95 150 9.9 150 15 C154.95 15 159.9 15 165 15 C165 64.5 165 114 165 165 C115.5 165 66 165 15 165 C15 160.05 15 155.1 15 150 C10.05 150 5.1 150 0 150 C0 100.5 0 51 0 0 Z M7 7 C7 51.88 7 96.76 7 143 C51.88 143 96.76 143 143 143 C143 98.12 143 53.24 143 7 C98.12 7 53.24 7 7 7 Z " fill="#000000" transform="translate(68,66)"/>
<path d="M0 0 C118.8 0 237.6 0 360 0 C360 4.95 360 9.9 360 15 C241.2 15 122.4 15 0 15 C0 10.05 0 5.1 0 0 Z " fill="#FFD93D" transform="translate(50,281)"/>
<path d="M0 0 C46.68105037 0 46.68105037 0 55.4921875 8.33984375 C61.51016426 14.96585444 61.81895953 22.26127072 61.4453125 30.921875 C60.80827346 38.71581634 56.91718104 43.73129492 51.13671875 48.7109375 C43.50245849 53.31661554 36.71177981 53.38057619 28 53.1875 C22.06 53.0946875 22.06 53.0946875 16 53 C16 63.23 16 73.46 16 84 C10.72 84 5.44 84 0 84 C0 56.28 0 28.56 0 0 Z " fill="#010404" transform="translate(115,98)"/>
<path d="M0 0 C4.95 0 9.9 0 15 0 C15 10.89 15 21.78 15 33 C19.61570232 30.23057861 21.97532278 27.85170575 25.0625 23.6875 C29.57835238 17.75524794 34.29736621 12.05734836 39.20336914 6.4440918 C41.88719034 3.42169362 41.88719034 3.42169362 44 0 C50.6 0 57.2 0 64 0 C62.46887534 3.06224932 61.44819042 4.83850679 59.27734375 7.28515625 C58.74334961 7.89262695 58.20935547 8.50009766 57.65917969 9.12597656 C57.09102539 9.7650293 56.52287109 10.40408203 55.9375 11.0625 C54.75274911 12.41174523 53.56916056 13.76201195 52.38671875 15.11328125 C51.80712402 15.77537598 51.2275293 16.4374707 50.63037109 17.11962891 C46.98241687 21.32695796 43.50070465 25.6703489 40 30 C38.31507004 32.06461398 36.62615266 34.1259256 34.9375 36.1875 C34.18339844 37.10917969 33.42929687 38.03085938 32.65234375 38.98046875 C32.10707031 39.64691406 31.56179688 40.31335938 31 41 C34.00310236 45.96164738 37.68032022 50.04063039 41.58984375 54.3125 C44.66988939 57.74697553 47.55104648 61.32218809 50.44921875 64.91015625 C54.12954038 69.41633545 57.98995677 73.77183556 61.83496094 78.13745117 C66 82.89421388 66 82.89421388 66 84 C48.68085593 86.03797197 48.68085593 86.03797197 43.10302734 82.94970703 C39.82226174 80.10637684 37.52919417 76.57020407 35.24023438 72.91259766 C33.10234735 69.61570652 30.58776861 66.61930325 28.125 63.5625 C27.2506837 62.4402957 26.37821067 61.31665223 25.5078125 60.19140625 C24.67275198 59.12691562 23.83681439 58.06311244 23 57 C22.56268555 56.43651855 22.12537109 55.87303711 21.67480469 55.29248047 C18.93826302 51.84776368 18.93826302 51.84776368 15 50 C15 61.22 15 72.44 15 84 C10.05 84 5.1 84 0 84 C0 56.28 0 28.56 0 0 Z " fill="#020001" transform="translate(294,98)"/>
<path d="M0 0 C3.691875 -0.0825 7.38375 -0.165 11.1875 -0.25 C12.92036255 -0.30462402 12.92036255 -0.30462402 14.68823242 -0.36035156 C22.2568598 -0.44241065 22.2568598 -0.44241065 26.17578125 1.890625 C29.59749089 5.84720573 29.33446831 9.21452605 29.28125 14.296875 C28.89828572 17.97758721 27.82193584 19.63567538 25 22 C20.13755057 24.70663689 15.08276837 24.22337278 9.6875 24.125 C4.8921875 24.063125 4.8921875 24.063125 0 24 C0 16.08 0 8.16 0 0 Z " fill="#65D7EC" transform="translate(131,113)"/>
</svg>
